#!OML:ASF F:\VICON\USERDATA\INSTALL\Justin_Nancy\Justin_Nancy.ASF
:FULLY-SPECIFIED
:DEGREES
32
root 1.87791 17.5219 -24.9061 -3.69633 -3.29458 -3.46629
lowerback 8.12669 0.146776 2.09491
upperback 1.15049 0.496614 3.26072
thorax -3.37819 0.237013 2.14553
lowerneck -14.5387 -3.25935 -9.62094
upperneck 19.3932 -3.6856 6.67213
head 8.76011 -1.7603 3.43165
rclavicle 4.74598e-015 4.05521e-014
rhumerus -28.7456 -11.6336 -78.4524
rradius 29.1113
rwrist 10.1586
rhand -17.4223 7.36937
rfingers 7.12502
rthumb 8.82781 -22.426
lclavicle 4.74598e-015 4.05521e-014
lhumerus -31.0187 9.8104 85.2897
lradius 27.4337
lwrist -6.72646
lhand -15.2115 29.7983
lfingers 7.12502
lthumb 10.9607 59.4922
rfemur -1.9893 6.25233 30.9453
rtibia 22.1886
rfoot -11.3734 -3.61146
rtoes 5.59459
lfemur -26.8183 2.47913 -15.9951
ltibia 63.4307
lfoot -2.86514 1.63333
ltoes -1.63058
33
root 1.86976 17.4994 -24.7448 -3.56419 -3.44856 -3.82913
lowerback 8.15777 0.206312 2.53014
upperback 1.20969 0.613462 3.28106
thorax -3.33244 0.289962 1.90892
lowerneck -14.7173 -3.5368 -9.3728
upperneck 18.8508 -4.01897 6.33943
head 8.62725 -1.92501 3.22514
rclavicle 1.45361e-014 3.73715e-014
rhumerus -27.9405 -10.9453 -78.8898
rradius 29.6147
rwrist 9.59749
rhand -17.3006 7.86303
rfingers 7.12502
rthumb 8.94528 -21.9273
lclavicle 1.45361e-014 3.73715e-014
lhumerus -30.9074 10.1868 85.1454
lradius 27.0452
lwrist -7.51033
lhand -15.0544 29.031
lfingers 7.12502
lthumb 11.1123 58.7167
rfemur -1.41744 6.30364 31.4228
rtibia 22.0362
rfoot -11.8249 -3.65575
rtoes 6.18483
lfemur -27.6042 2.60459 -15.6753
ltibia 61.7904
lfoot -4.13447 2.49803
ltoes -4.36845
34
root 1.86262 17.4856 -24.5831 -3.41818 -3.88657 -4.05658
lowerback 8.17897 0.379924 2.77468
upperback 1.21404 0.866523 3.28256
thorax -3.33998 0.412579 1.7454
lowerneck -14.8679 -3.65176 -9.35066
upperneck 18.8777 -4.17316 6.35103
head 8.677 -1.99237 3.20543
rclavicle 1.19519e-014 1.59028e-015
rhumerus -27.3289 -10.1935 -79.2634
rradius 30.1742
rwrist 9.17567
rhand -17.5633 8.13384
rfingers 7.12502
rthumb 8.69177 -21.6672
lclavicle 1.19519e-014 1.59028e-015
lhumerus -30.851 10.815 84.8641
lradius 26.6597
lwrist -9.08536
lhand -14.7029 28.2585
lfingers 7.12502
lthumb 11.4513 57.9257
rfemur -0.792831 6.68723 31.7749
rtibia 21.8268
rfoot -12.1845 -3.83934
rtoes 5.91071
lfemur -28.2486 2.92414 -15.4957
ltibia 59.9562
lfoot -5.88915 3.09083
ltoes -8.88196
35
root 1.85878 17.4806 -24.4135 -3.29316 -4.22479 -4.23152
lowerback 7.98609 0.517645 3.01422
upperback 1.14698 1.06246 3.25473
thorax -3.2991 0.50697 1.56199
lowerneck -14.1963 -3.72572 -9.33124
upperneck 18.5446 -4.34084 6.3971
head 8.45743 -2.07458 3.19912
rclavicle -2.73329e-016 2.38542e-015
rhumerus -27.0068 -9.53518 -79.5448
rradius 30.7492
rwrist 8.7407
rhand -17.6884 8.53801
rfingers 7.12502
rthumb 8.57103 -21.268
lclavicle -2.73329e-016 2.38542e-015
lhumerus -31.2524 11.074 84.6675
lradius 26.5292
lwrist -9.91149
lhand -14.6537 28.2018
lfingers 7.12502
lthumb 11.4987 57.8664
rfemur -0.089566 6.89052 32.0296
rtibia 21.5477
rfoot -12.5788 -3.98113
rtoes 5.98066
lfemur -28.6971 3.06608 -15.3794
ltibia 57.9104
lfoot -7.10496 3.37008
ltoes -10.4383
36
root 1.85203 17.4651 -24.2458 -3.12212 -4.23972 -4.43795
lowerback 7.9047 0.522455 3.19227
upperback 0.963456 1.09067 3.31328
thorax -3.44225 0.517219 1.52039
lowerneck -13.6073 -3.75177 -9.29561
upperneck 18.2463 -4.39801 6.25131
head 8.25191 -2.12161 3.13883
rclavicle -6.85807e-015 7.95139e-016
rhumerus -26.8001 -8.7474 -79.7062
rradius 31.3043
rwrist 8.2527
rhand -17.5672 8.94457
rfingers 7.12502
rthumb 8.68803 -20.8566
lclavicle -6.85807e-015 7.95139e-016
lhumerus -31.8604 11.4607 84.55
lradius 26.3609
lwrist -10.167
lhand -14.5251 29.2478
lfingers 7.12502
lthumb 11.6228 58.9054
rfemur 0.561737 6.93817 32.3236
rtibia 21.1963
rfoot -12.9572 -4.06845
rtoes 5.8708
lfemur -29.2284 2.90707 -15.2084
ltibia 55.6599
lfoot -7.6526 3.70133
ltoes -9.87316
37
root 1.84663 17.4454 -24.0765 -2.85674 -4.4383 -4.63091
lowerback 7.87269 0.61649 3.36922
upperback 0.798807 1.23941 3.36912
thorax -3.59362 0.586814 1.46334
lowerneck -13.8172 -3.70569 -9.43541
upperneck 18.4419 -4.31675 6.37696
head 8.35444 -2.07848 3.21468
rclavicle 1.2921e-015 7.95139e-016
rhumerus -26.5688 -7.74075 -79.9191
rradius 32.0592
rwrist 7.54372
rhand -17.7499 8.93552
rfingers 7.12502
rthumb 8.51166 -20.8729
lclavicle 1.2921e-015 7.95139e-016
lhumerus -32.221 11.7609 84.5614
lradius 25.6172
lwrist -8.76089
lhand -16.1741 27.3756
lfingers 7.12502
lthumb 10.0322 57.1165
rfemur 1.14143 6.90462 32.5397
rtibia 20.8013
rfoot -13.387 -3.86008
rtoes 5.91006
lfemur -29.7193 2.86186 -15.0479
ltibia 53.2446
lfoot -7.56324 4.45105
ltoes -7.98429
38
root 1.84209 17.437 -23.9064 -2.5863 -4.91637 -4.70524
lowerback 7.59926 0.844486 3.53212
upperback 1.04435 1.52561 3.31574
thorax -3.1804 0.731759 1.2909
lowerneck -14.9722 -3.69881 -9.47539
upperneck 18.7069 -4.24232 6.58851
head 8.65178 -2.00633 3.29643
rclavicle 6.5102e-015 -2.14687e-014
rhumerus -25.6481 -6.99569 -80.3056
rradius 32.8738
rwrist 6.7272
rhand -17.6308 7.42548
rfingers 7.12502
rthumb 8.6266 -22.3783
lclavicle 6.5102e-015 -2.14687e-014
lhumerus -31.7446 12.1028 84.6007
lradius 25.1489
lwrist -8.3413
lhand -16.6961 28.1111
lfingers 7.12502
lthumb 9.5286 57.8756
rfemur 1.75578 7.03836 32.6052
rtibia 20.3748
rfoot -13.6784 -3.603
rtoes 5.66617
lfemur -29.9694 2.96082 -14.9758
ltibia 50.7003
lfoot -7.16597 5.33051
ltoes -3.67971
39
root 1.83925 17.4299 -23.7395 -2.20638 -5.14796 -4.80178
lowerback 7.28622 1.03454 3.79294
upperback 1.60252 1.74824 3.23948
thorax -2.41648 0.851794 1.05436
lowerneck -17.6151 -3.84198 -9.51364
upperneck 19.5817 -4.26473 6.82113
head 9.44301 -1.95312 3.37476
rclavicle -1.39646e-014 -3.26007e-014
rhumerus -23.7492 -6.85187 -80.6473
rradius 33.2224
rwrist 6.50826
rhand -16.8436 4.57497
rfingers 7.12502
rthumb 9.38624 -25.196
lclavicle -1.39646e-014 -3.26007e-014
lhumerus -30.3467 12.605 84.7635
lradius 24.7621
lwrist -8.61815
lhand -16.3059 29.2271
lfingers 7.12502
lthumb 9.90505 58.9741
rfemur 2.28775 7.21577 32.7057
rtibia 19.8542
rfoot -13.8434 -3.61452
rtoes 5.78444
lfemur -30.3088 2.8528 -14.8681
ltibia 48.0336
lfoot -7.03449 5.95177
ltoes -0.0310932
40
root 1.83721 17.4191 -23.5749 -1.82385 -5.28481 -4.98091
lowerback 7.24694 1.11357 3.75513
upperback 0.839571 1.89314 3.39007
thorax -3.19038 0.910895 1.21143
lowerneck -15.1771 -3.93177 -9.47006
upperneck 18.6115 -4.50165 6.39886
head 8.6759 -2.14265 3.19439
rclavicle 1.66979e-014 6.36111e-015
rhumerus -24.638 -5.9306 -80.491
rradius 33.7003
rwrist 6.01482
rhand -18.4508 7.95672
rfingers 7.12502
rthumb 7.83527 -21.8781
lclavicle 1.66979e-014 6.36111e-015
lhumerus -32.075 13.2554 84.338
lradius 24.6824
lwrist -9.00018
lhand -16.2224 29.2198
lfingers 7.12502
lthumb 9.98557 58.9629
rfemur 2.86045 7.22487 32.8651
rtibia 19.2115
rfoot -14.0792 -3.54168
rtoes 5.2966
lfemur -30.6574 2.42944 -14.6546
ltibia 45.2227
lfoot -6.95065 6.71132
ltoes -1.82312
41
root 1.83489 17.4118 -23.4063 -1.54713 -5.49838 -5.05593
lowerback 7.25025 1.24393 3.77372
upperback 0.383056 2.09374 3.41098
thorax -3.66553 1.00195 1.19871
lowerneck -14.1487 -3.89237 -9.38437
upperneck 18.3295 -4.52236 6.24572
head 8.39075 -2.17788 3.13208
rclavicle 4.42296e-015 2.3059e-014
rhumerus -25.0554 -5.30532 -80.4291
rradius 34.2595
rwrist 5.63555
rhand -18.9863 9.29033
rfingers 7.12502
rthumb 7.31838 -20.5631
lclavicle 4.42296e-015 2.3059e-014
lhumerus -33.0775 14.1947 83.739
lradius 24.1828
lwrist -9.64873
lhand -16.2114 28.3509
lfingers 7.12502
lthumb 9.99624 58.0936
rfemur 3.57428 7.18307 32.8979
rtibia 18.5329
rfoot -14.3205 -3.29643
rtoes 5.23557
lfemur -30.806 1.81504 -14.4828
ltibia 42.2606
lfoot -6.45202 7.64707
ltoes -5.93541
42
root 1.83161 17.3973 -23.2289 -1.29982 -5.78171 -5.16356
lowerback 7.1038 1.36231 3.95256
upperback 0.303375 2.25781 3.33865
thorax -3.65549 1.07937 1.01009
lowerneck -14.5476 -3.63474 -9.31869
upperneck 18.8095 -4.18498 6.35677
head 8.59597 -1.99972 3.20248
rclavicle -2.18663e-014 -1.90833e-014
rhumerus -24.7409 -4.84841 -80.6417
rradius 34.8472
rwrist 5.1377
rhand -18.7286 9.75797
rfingers 7.12502
rthumb 7.56713 -20.0867
lclavicle -2.18663e-014 -1.90833e-014
lhumerus -33.2877 15.4664 82.9738
lradius 23.4988
lwrist -10.4327
lhand -15.9156 26.9982
lfingers 7.12502
lthumb 10.2816 56.7269
rfemur 4.38298 7.32095 33.0068
rtibia 17.7928
rfoot -14.4 -3.23127
rtoes 5.01937
lfemur -30.8401 1.2516 -14.2296
ltibia 39.2048
lfoot -5.39463 8.40678
ltoes -8.27724
43
root 1.83211 17.3856 -23.0537 -0.969659 -5.94971 -5.227
lowerback 6.91693 1.46729 4.07894
upperback 0.265902 2.39583 3.29963
thorax -3.58138 1.14625 0.890141
lowerneck -15.109 -3.87563 -9.22175
upperneck 18.9482 -4.47096 6.24278
head 8.7654 -2.1301 3.10788
rclavicle -2.75068e-014 -1.59028e-014
rhumerus -24.279 -4.44995 -80.6997
rradius 35.4403
rwrist 4.4145
rhand -18.0796 10.4119
rfingers 7.12502
rthumb 8.19349 -19.4093
lclavicle -2.75068e-014 -1.59028e-014
lhumerus -33.3284 16.5794 82.4471
lradius 22.9853
lwrist -11.102
lhand -15.5083 26.1265
lfingers 7.12502
lthumb 10.6744 55.8353
rfemur 5.10621 7.33828 33.0268
rtibia 17.021
rfoot -14.5069 -3.05529
rtoes 4.92445
lfemur -30.9607 0.470585 -13.9365
ltibia 36.1219
lfoot -4.37145 9.03402
ltoes -8.23743
44
root 1.83027 17.3778 -22.8747 -0.633243 -6.19525 -5.23162
lowerback 6.48069 1.63258 4.15526
upperback 0.330762 2.5866 3.22963
thorax -3.26004 1.2448 0.771125
lowerneck -15.3724 -4.01693 -9.32555
upperneck 18.8503 -4.64988 6.41274
head 8.80203 -2.19866 3.15724
rclavicle -2.42766e-014 -4.37326e-015
rhumerus -23.9325 -4.27205 -80.7572
rradius 36.1815
rwrist 3.93301
rhand -17.9594 10.4473
rfingers 7.12502
rthumb 8.30953 -19.3693
lclavicle -2.42766e-014 -4.37326e-015
lhumerus -33.1873 17.6016 82.0215
lradius 22.5009
lwrist -11.8082
lhand -15.024 26.4153
lfingers 7.12502
lthumb 11.1416 56.0995
rfemur 5.77623 7.28828 32.9677
rtibia 16.3329
rfoot -14.6176 -2.83251
rtoes 4.35691
lfemur -30.9877 -0.488585 -13.5655
ltibia 33.0845
lfoot -3.33327 10.0251
ltoes -7.42375
45
root 1.82722 17.3663 -22.6935 -0.295663 -6.55104 -5.46398
lowerback 5.99624 1.78643 4.43016
upperback 0.386918 2.77469 3.24441
thorax -2.91511 1.3406 0.634423
lowerneck -15.3127 -4.07696 -9.47297
upperneck 18.4712 -4.71989 6.56827
head 8.67599 -2.22464 3.22261
rclavicle -9.19379e-016 -1.63003e-014
rhumerus -23.6271 -4.07748 -80.8055
rradius 36.8061
rwrist 3.8324
rhand -17.8071 10.6511
rfingers 7.12502
rthumb 8.4565 -19.1596
lclavicle -9.19379e-016 -1.63003e-014
lhumerus -33.205 18.5988 81.5986
lradius 22.0782
lwrist -12.1031
lhand -14.8849 27.3162
lfingers 7.12502
lthumb 11.2758 56.9931
rfemur 6.45322 7.16605 33.1382
rtibia 15.6904
rfoot -14.708 -2.50841
rtoes 3.58965
lfemur -30.9692 -1.7059 -12.7641
ltibia 30.1904
lfoot -2.18489 11.4104
ltoes -7.96693
